<?xml version="1.0" standalone="no"?>
<!DOCTYPE svg PUBLIC "-//W3C//DTD SVG 20010904//EN"
 "http://www.w3.org/TR/2001/REC-SVG-20010904/DTD/svg10.dtd">
<svg version="1.0" xmlns="http://www.w3.org/2000/svg"
 width="256.000000pt" height="256.000000pt" viewBox="0 0 256.000000 256.000000"
 preserveAspectRatio="xMidYMid meet">

<g transform="translate(0.000000,256.000000) scale(0.100000,-0.100000)"
fill="#000000" stroke="none">
<path d="M428 1817 c-145 -140 -188 -188 -188 -207 0 -28 -28 -472 -34 -536
l-3 -41 300 -164 300 -163 198 202 c197 199 199 201 199 166 0 -37 11 -49 417
-472 l51 -54 149 78 c81 42 220 115 308 161 88 46 165 89 170 94 6 5 22 123
36 262 l25 252 -234 242 c-129 134 -239 243 -244 243 -6 0 -22 -8 -36 -18 -52
-36 -563 -334 -566 -331 -2 2 1 38 5 79 5 41 6 82 4 91 -6 18 4 13 -352 175
-149 68 -282 124 -295 124 -16 -1 -80 -56 -210 -183z m322 98 c52 -27 52 -93
0 -120 -48 -25 -97 -19 -131 14 -16 16 -29 37 -29 46 0 9 13 30 29 46 34 33
83 39 131 14z m386 -176 c51 -48 10 -119 -68 -119 -70 0 -117 45 -98 94 21 57
117 71 166 25z m-323 -11 c55 -29 61 -74 16 -112 -44 -37 -101 -36 -140 3 -16
16 -29 37 -29 46 0 9 13 30 29 46 32 32 84 39 124 17z m983 -9 c8 -13 -35 -75
-61 -88 -43 -22 -72 -29 -86 -20 -11 7 -11 9 0 9 7 0 11 6 8 14 -6 14 56 80
82 88 27 8 51 7 57 -3z m194 -25 c57 -49 91 -144 64 -183 -20 -28 -27 -27 -69
11 -63 55 -96 153 -63 186 18 18 33 15 68 -14z m-1459 -23 c37 -37 37 -55 0
-92 -23 -23 -38 -29 -71 -29 -33 0 -48 6 -71 29 -37 38 -37 63 2 95 44 37 101
36 140 -3z m365 -157 c30 -18 39 -60 19 -90 -8 -13 -33 -29 -55 -35 -35 -11
-46 -10 -76 4 -46 22 -63 60 -43 95 26 47 102 60 155 26z m714 -10 c0 -26 -21
-56 -35 -50 -9 3 -12 0 -9 -8 5 -14 -23 -43 -32 -33 -4 3 -13 -1 -21 -9 -17
-17 -44 -15 -50 3 -5 13 59 83 92 101 29 16 55 14 55 -4z m-372 -46 c4 -33
-21 -84 -49 -98 -60 -32 -67 48 -11 113 23 26 56 18 60 -15z m-828 -37 c36
-35 47 -75 30 -106 -37 -70 -160 -9 -160 79 0 60 80 77 130 27z m720 -51 c16
-30 -20 -107 -54 -116 -14 -3 -29 -3 -34 0 -5 3 -12 -7 -15 -22 -13 -65 -87
-110 -102 -63 -15 48 57 138 89 112 11 -9 15 -5 20 19 6 31 55 90 75 90 6 0
15 -9 21 -20z m276 -95 c6 -41 -112 -122 -140 -95 -11 11 26 72 41 66 7 -3 10
1 7 9 -7 18 36 42 46 25 5 -8 9 -7 14 5 8 21 28 15 32 -10z m760 -7 c76 -67
101 -198 38 -198 -40 0 -124 120 -124 177 0 22 24 53 40 53 5 0 26 -15 46 -32z
m-961 -67 c14 -44 -46 -128 -84 -118 -14 3 -20 -2 -24 -22 -8 -40 -45 -81 -73
-81 -48 0 -39 76 16 125 17 16 24 17 41 7 16 -11 19 -9 19 9 0 67 87 134 105
80z m-628 -26 c29 -29 34 -40 31 -72 -2 -28 -9 -41 -30 -52 -24 -14 -30 -14
-62 1 -91 44 -94 158 -3 158 20 0 40 -11 64 -35z m1168 -139 c58 -25 90 -98
65 -147 -13 -23 -61 -49 -92 -49 -41 1 -106 37 -122 69 -50 96 40 172 149 127z
m-757 -58 c6 -52 -47 -118 -84 -104 -8 3 -14 19 -14 40 0 72 90 131 98 64z
m-242 -32 c26 -26 34 -43 34 -68 0 -96 -122 -84 -159 15 -31 81 59 119 125 53z"/>
<path d="M1770 1700 c-6 -11 -8 -20 -6 -20 3 0 10 9 16 20 6 11 8 20 6 20 -3
0 -10 -9 -16 -20z"/>
</g>
</svg>
