<?xml version="1.0" standalone="no"?>
<!DOCTYPE svg PUBLIC "-//W3C//DTD SVG 20010904//EN"
 "http://www.w3.org/TR/2001/REC-SVG-20010904/DTD/svg10.dtd">
<svg version="1.0" xmlns="http://www.w3.org/2000/svg"
 width="256.000000pt" height="256.000000pt" viewBox="0 0 256.000000 256.000000"
 preserveAspectRatio="xMidYMid meet">

<g transform="translate(0.000000,256.000000) scale(0.100000,-0.100000)"
fill="#000000" stroke="none">
<path d="M912 2373 c-7 -3 -19 -18 -28 -35 -26 -50 -6 -86 77 -137 39 -24 67
-47 62 -51 -4 -4 -26 -13 -48 -20 -196 -62 -402 -244 -503 -445 -59 -119 -84
-218 -90 -359 -9 -235 47 -420 182 -595 103 -134 169 -169 221 -116 41 40 34
80 -26 145 -162 174 -239 397 -210 607 37 263 188 472 418 580 72 33 133 51
133 39 0 -3 -23 -42 -50 -87 -67 -106 -71 -129 -32 -169 38 -38 73 -39 111 -2
30 29 206 304 224 351 19 52 -5 76 -191 193 -170 106 -204 120 -250 101z"/>
<path d="M1775 1945 c-32 -31 -34 -84 -3 -111 48 -42 140 -169 172 -237 50
-107 70 -195 70 -317 -1 -122 -19 -210 -68 -313 -69 -150 -192 -275 -341 -348
-75 -36 -145 -58 -145 -46 0 3 25 45 55 94 30 50 55 100 55 112 0 30 -52 81
-82 81 -13 0 -33 -7 -45 -15 -20 -14 -223 -329 -236 -367 -3 -10 -1 -31 4 -47
9 -24 45 -52 188 -140 178 -111 209 -123 252 -100 26 14 41 55 33 91 -4 23
-23 41 -81 77 -41 27 -71 51 -67 53 5 3 27 11 49 18 197 63 403 245 502 445
113 227 124 496 31 739 -61 158 -221 356 -288 356 -19 0 -40 -9 -55 -25z"/>
</g>
</svg>
